<svg version="1.1" viewBox="0.0 0.0 110.91338582677166 119.01837270341207" fill="none" stroke="none" stroke-linecap="square" stroke-miterlimit="10" xmlns:xlink="http://www.w3.org/1999/xlink" xmlns="http://www.w3.org/2000/svg"><clipPath id="p.0"><path d="m0 0l110.91338 0l0 119.01837l-110.91338 0l0 -119.01837z" clip-rule="nonzero"/></clipPath><g clip-path="url(#p.0)"><path fill="#000000" fill-opacity="0.0" d="m0 0l110.91338 0l0 119.01837l-110.91338 0z" fill-rule="evenodd"/><path fill="#000000" fill-opacity="0.0" d="m104.03412 -30.469816l799.937 0l0 144.62991l-799.937 0z" fill-rule="evenodd"/><path fill="#ffffff" d="m129.581 3.9645557l11.65625 50.203125l0.203125 0l12.8125 -50.203125l15.1875 0l12.609375 50.8125l0.203125 0l12.109375 -50.8125l15.890625 0l-19.828125 73.765625l-16.140625 0l-12.46875 -50.203125l-0.1875 0l-12.3125 50.203125l-16.453125 0l-19.53125 -73.765625l16.25 0zm121.19789 -1.765625q16.437515 0 26.343765 11.03125q9.921875 11.015625 9.921875 27.921873q0 16.5 -9.96875 27.421875q-9.953125 10.921875 -26.29689 10.921875q-10.65625 0 -18.953125 -4.890625q-8.296875 -4.890625 -12.8125 -13.75q-4.515625 -8.859375 -4.515625 -19.703125q0 -17.046873 9.953125 -27.999998q9.96875 -10.953125 26.328125 -10.953125zm-20.09375 38.953125q0 10.890625 5.21875 17.78125q5.234375 6.890625 14.875 6.890625q9.531265 0 14.76564 -6.78125q5.25 -6.796875 5.25 -17.890625q0 -11.656248 -5.328125 -18.484373q-5.3125 -6.84375 -14.79689 -6.84375q-9.4375 0 -14.71875 6.921875q-5.265625 6.90625 -5.265625 18.406248zm100.46568 -38.953125q16.4375 0 26.34375 11.03125q9.921875 11.015625 9.921875 27.921873q0 16.5 -9.96875 27.421875q-9.953125 10.921875 -26.296875 10.921875q-10.65625 0 -18.953125 -4.890625q-8.296875 -4.890625 -12.8125 -13.75q-4.515625 -8.859375 -4.515625 -19.703125q0 -17.046873 9.953125 -27.999998q9.96875 -10.953125 26.328125 -10.953125zm-20.09375 38.953125q0 10.890625 5.21875 17.78125q5.234375 6.890625 14.875 6.890625q9.53125 0 14.765625 -6.78125q5.25 -6.796875 5.25 -17.890625q0 -11.656248 -5.328125 -18.484373q-5.3125 -6.84375 -14.796875 -6.84375q-9.4375 0 -14.71875 6.921875q-5.265625 6.90625 -5.265625 18.406248zm83.60632 -37.1875l0 60.140625l35.96875 0l0 13.625l-52.21875 0l0 -73.765625l16.25 0zm96.87518 0l0 13.625l-35.625 0l0 17.046873l30.875 0l0 12.625l-30.875 0l0 30.46875l-16.25 0l0 -73.765625l51.875 0zm13.521332 57.875l0 15.890625l-16.203125 0l0 -15.890625l16.203125 0zm46.520355 -59.640625q12.5625 0 21.40625 7.09375q8.859375 7.09375 10.375 19.453125l-15.6875 0q-1.0625 -5.8125 -5.765625 -9.359375q-4.6875 -3.5625 -10.390625 -3.5625q-9.484375 0 -14.765625 6.9375q-5.265625 6.9375 -5.265625 18.390623q0 10.953125 5.21875 17.8125q5.234375 6.859375 14.875 6.859375q7.0 0 11.34375 -4.3125q4.34375 -4.3125 5.34375 -12.1875l15.75 0q-1.421875 14.078125 -10.234375 22.125q-8.796875 8.046875 -22.203125 8.046875q-10.65625 0 -18.953125 -4.859375q-8.296875 -4.875 -12.8125 -13.75q-4.515625 -8.890625 -4.515625 -19.734375q0 -16.999998 9.9375 -27.968748q9.9375 -10.984375 26.34375 -10.984375zm76.58795 0q12.5625 0 21.40625 7.09375q8.859375 7.09375 10.375 19.453125l-15.6875 0q-1.0625 -5.8125 -5.765625 -9.359375q-4.6875 -3.5625 -10.390625 -3.5625q-9.484375 0 -14.765625 6.9375q-5.265625 6.9375 -5.265625 18.390623q0 10.953125 5.21875 17.8125q5.234375 6.859375 14.875 6.859375q7.0 0 11.34375 -4.3125q4.34375 -4.3125 5.34375 -12.1875l15.75 0q-1.421875 14.078125 -10.234375 22.125q-8.796875 8.046875 -22.203125 8.046875q-10.65625 0 -18.953125 -4.859375q-8.296875 -4.875 -12.8125 -13.75q-4.515625 -8.890625 -4.515625 -19.734375q0 -16.999998 9.9375 -27.968748q9.9375 -10.984375 26.34375 -10.984375z" fill-rule="nonzero"/><path fill="#000000" fill-opacity="0.0" d="m109.301834 72.333336l726.7087 0l0 59.77952l-726.7087 0z" fill-rule="evenodd"/><path fill="#ffffff" d="m137.89558 104.97396l3.15625 0.796875q-1.0 3.890625 -3.578125 5.9375q-2.578125 2.03125 -6.296875 2.03125q-3.859375 0 -6.28125 -1.5625q-2.40625 -1.578125 -3.671875 -4.546875q-1.265625 -2.984375 -1.265625 -6.40625q0 -3.71875 1.421875 -6.5q1.421875 -2.78125 4.046875 -4.21875q2.640625 -1.4375 5.796875 -1.4375q3.578125 0 6.015625 1.828125q2.453125 1.8125 3.40625 5.125l-3.109375 0.734375q-0.828125 -2.609375 -2.40625 -3.796875q-1.578125 -1.1875 -3.96875 -1.1875q-2.75 0 -4.609375 1.328125q-1.84375 1.3125 -2.59375 3.53125q-0.734375 2.21875 -0.734375 4.578125q0 3.046875 0.875 5.3125q0.890625 2.265625 2.765625 3.390625q1.875 1.125 4.046875 1.125q2.65625 0 4.484375 -1.53125q1.84375 -1.53125 2.5 -4.53125zm6.084137 -3.265625q0 -5.9375 3.1875 -9.296875q3.1875 -3.359375 8.234375 -3.359375q3.3125 0 5.953125 1.578125q2.65625 1.578125 4.046875 4.40625q1.390625 2.828125 1.390625 6.40625q0 3.625 -1.46875 6.5q-1.453125 2.859375 -4.140625 4.328125q-2.6875 1.46875 -5.796875 1.46875q-3.359375 0 -6.015625 -1.625q-2.65625 -1.625 -4.03125 -4.4375q-1.359375 -2.828125 -1.359375 -5.96875zm3.25 0.046875q0 4.3125 2.3125 6.796875q2.328125 2.484375 5.828125 2.484375q3.5625 0 5.859375 -2.5q2.3125 -2.515625 2.3125 -7.109375q0 -2.921875 -0.984375 -5.09375q-0.984375 -2.171875 -2.890625 -3.359375q-1.890625 -1.203125 -4.25 -1.203125q-3.34375 0 -5.765625 2.3125q-2.421875 2.296875 -2.421875 7.671875zm23.595566 11.578125l0 -23.859375l3.25 0l12.53125 18.734375l0 -18.734375l3.015625 0l0 23.859375l-3.234375 0l-12.53125 -18.75l0 18.75l-3.03125 0zm23.037262 -7.671875l2.96875 -0.25q0.21875 1.78125 0.984375 2.9375q0.78125 1.140625 2.40625 1.859375q1.625 0.703125 3.65625 0.703125q1.8125 0 3.1875 -0.53125q1.390625 -0.546875 2.0625 -1.484375q0.671875 -0.9375 0.671875 -2.046875q0 -1.109375 -0.65625 -1.953125q-0.640625 -0.84375 -2.140625 -1.40625q-0.953125 -0.375 -4.25 -1.15625q-3.28125 -0.796875 -4.59375 -1.5q-1.71875 -0.890625 -2.5625 -2.21875q-0.828125 -1.328125 -0.828125 -2.96875q0 -1.8125 1.015625 -3.375q1.03125 -1.578125 3.0 -2.390625q1.96875 -0.8125 4.390625 -0.8125q2.640625 0 4.671875 0.859375q2.03125 0.84375 3.109375 2.515625q1.09375 1.65625 1.171875 3.75l-3.015625 0.234375q-0.25 -2.265625 -1.65625 -3.421875q-1.40625 -1.15625 -4.15625 -1.15625q-2.859375 0 -4.171875 1.0625q-1.3125 1.046875 -1.3125 2.515625q0 1.296875 0.921875 2.125q0.921875 0.828125 4.765625 1.703125q3.84375 0.859375 5.28125 1.515625q2.078125 0.953125 3.0625 2.4375q1.0 1.46875 1.0 3.390625q0 1.90625 -1.09375 3.59375q-1.078125 1.671875 -3.125 2.609375q-2.046875 0.9375 -4.59375 0.9375q-3.25 0 -5.4375 -0.9375q-2.1875 -0.953125 -3.4375 -2.84375q-1.234375 -1.890625 -1.296875 -4.296875zm38.94835 -16.1875l3.171875 0l0 13.78125q0 3.59375 -0.828125 5.71875q-0.8125 2.109375 -2.9375 3.4375q-2.109375 1.328125 -5.5625 1.328125q-3.359375 0 -5.5 -1.15625q-2.125 -1.15625 -3.03125 -3.34375q-0.90625 -2.1875 -0.90625 -5.984375l0 -13.78125l3.15625 0l0 13.765625q0 3.109375 0.578125 4.59375q0.578125 1.46875 1.984375 2.265625q1.40625 0.796875 3.4375 0.796875q3.484375 0 4.953125 -1.578125q1.484375 -1.578125 1.484375 -6.078125l0 -13.765625zm8.287262 23.859375l0 -23.859375l3.15625 0l0 21.046875l11.750015 0l0 2.8125l-14.906265 0zm22.264694 0l0 -21.046875l-7.859375 0l0 -2.8125l18.90625 0l0 2.8125l-7.890625 0l0 21.046875l-3.15625 0zm14.826904 0l0 -23.859375l3.15625 0l0 23.859375l-3.15625 0zm8.681519 0l0 -23.859375l3.25 0l12.53125 18.734375l0 -18.734375l3.015625 0l0 23.859375l-3.234375 0l-12.53125 -18.75l0 18.75l-3.03125 0zm35.271637 -9.359375l0 -2.796875l10.109375 -0.015625l0 8.859375q-2.328125 1.84375 -4.8125 2.78125q-2.46875 0.9375 -5.0625 0.9375q-3.515625 0 -6.390625 -1.5q-2.875 -1.515625 -4.34375 -4.359375q-1.453125 -2.84375 -1.453125 -6.359375q0 -3.484375 1.453125 -6.5q1.453125 -3.015625 4.1875 -4.484375q2.734375 -1.46875 6.296875 -1.46875q2.59375 0 4.671875 0.84375q2.09375 0.828125 3.28125 2.328125q1.1875 1.5 1.8125 3.90625l-2.84375 0.78125q-0.546875 -1.8125 -1.34375 -2.859375q-0.796875 -1.046875 -2.28125 -1.671875q-1.46875 -0.625 -3.28125 -0.625q-2.15625 0 -3.75 0.65625q-1.578125 0.65625 -2.546875 1.734375q-0.953125 1.078125 -1.5 2.359375q-0.90625 2.21875 -0.90625 4.796875q0 3.203125 1.09375 5.34375q1.09375 2.140625 3.1875 3.1875q2.109375 1.046875 4.46875 1.046875q2.046875 0 4.0 -0.78125q1.953125 -0.796875 2.96875 -1.703125l0 -4.4375l-7.015625 0zm37.27707 6.546875q-1.4375 1.609375 -3.15625 2.421875q-1.703125 0.796875 -3.6875 0.796875q-3.65625 0 -5.8125 -2.46875q-1.734375 -2.015625 -1.734375 -4.515625q0 -2.203125 1.421875 -3.984375q1.421875 -1.796875 4.25 -3.140625q-1.609375 -1.859375 -2.15625 -3.015625q-0.53125 -1.15625 -0.53125 -2.21875q0 -2.15625 1.6875 -3.734375q1.6875 -1.59375 4.234375 -1.59375q2.453125 0 4.0 1.5q1.5625 1.5 1.5625 3.59375q0 3.40625 -4.515625 5.8125l4.28125 5.453125q0.734375 -1.4375 1.140625 -3.328125l3.046875 0.65625q-0.78125 3.125 -2.125 5.140625q1.640625 2.1875 3.734375 3.65625l-1.96875 2.328125q-1.78125 -1.125 -3.671875 -3.359375zm-5.953125 -12.4375q1.90625 -1.125 2.46875 -1.96875q0.5625 -0.84375 0.5625 -1.875q0 -1.21875 -0.78125 -1.984375q-0.765625 -0.78125 -1.921875 -0.78125q-1.1875 0 -1.984375 0.765625q-0.78125 0.765625 -0.78125 1.875q0 0.546875 0.28125 1.171875q0.28125 0.609375 0.859375 1.28125l1.296875 1.515625zm4.125 10.125l-5.375 -6.65625q-2.375 1.421875 -3.203125 2.640625q-0.828125 1.203125 -0.828125 2.390625q0 1.4375 1.15625 3.0q1.15625 1.5625 3.265625 1.5625q1.3125 0 2.71875 -0.8125q1.421875 -0.828125 2.265625 -2.125zm37.082977 -3.234375l3.15625 0.796875q-1.0 3.890625 -3.578125 5.9375q-2.578125 2.03125 -6.296875 2.03125q-3.859375 0 -6.28125 -1.5625q-2.40625 -1.578125 -3.671875 -4.546875q-1.265625 -2.984375 -1.265625 -6.40625q0 -3.71875 1.421875 -6.5q1.421875 -2.78125 4.046875 -4.21875q2.640625 -1.4375 5.796875 -1.4375q3.578125 0 6.015625 1.828125q2.453125 1.8125 3.40625 5.125l-3.109375 0.734375q-0.828125 -2.609375 -2.40625 -3.796875q-1.578125 -1.1875 -3.96875 -1.1875q-2.75 0 -4.609375 1.328125q-1.84375 1.3125 -2.59375 3.53125q-0.734375 2.21875 -0.734375 4.578125q0 3.046875 0.875 5.3125q0.890625 2.265625 2.765625 3.390625q1.875 1.125 4.046875 1.125q2.65625 0 4.484375 -1.53125q1.84375 -1.53125 2.5 -4.53125zm6.084137 -3.265625q0 -5.9375 3.1875 -9.296875q3.1875 -3.359375 8.234375 -3.359375q3.3125 0 5.953125 1.578125q2.65625 1.578125 4.046875 4.40625q1.390625 2.828125 1.390625 6.40625q0 3.625 -1.46875 6.5q-1.453125 2.859375 -4.140625 4.328125q-2.6875 1.46875 -5.796875 1.46875q-3.359375 0 -6.015625 -1.625q-2.65625 -1.625 -4.03125 -4.4375q-1.359375 -2.828125 -1.359375 -5.96875zm3.25 0.046875q0 4.3125 2.3125 6.796875q2.328125 2.484375 5.828125 2.484375q3.5625 0 5.859375 -2.5q2.3125 -2.515625 2.3125 -7.109375q0 -2.921875 -0.984375 -5.09375q-0.984375 -2.171875 -2.890625 -3.359375q-1.890625 -1.203125 -4.25 -1.203125q-3.34375 0 -5.765625 2.3125q-2.421875 2.296875 -2.421875 7.671875zm23.5018 11.578125l0 -23.859375l3.15625 0l0 21.046875l11.75 0l0 2.8125l-14.90625 0zm18.535522 0l0 -23.859375l3.15625 0l0 21.046875l11.75 0l0 2.8125l-14.90625 0zm16.051147 0l9.15625 -23.859375l3.40625 0l9.765625 23.859375l-3.59375 0l-2.78125 -7.21875l-9.984375 0l-2.625 7.21875l-3.34375 0zm6.875 -9.796875l8.09375 0l-2.484375 -6.609375q-1.140625 -3.015625 -1.703125 -4.9375q-0.453125 2.28125 -1.28125 4.546875l-2.625 7.0zm17.83899 9.796875l0 -23.859375l8.953125 0q2.734375 0 4.375 0.734375q1.65625 0.71875 2.59375 2.234375q0.9375 1.5 0.9375 3.140625q0 1.53125 -0.828125 2.890625q-0.828125 1.34375 -2.5 2.171875q2.15625 0.625 3.3125 2.15625q1.171875 1.53125 1.171875 3.609375q0 1.6875 -0.703125 3.125q-0.703125 1.4375 -1.75 2.21875q-1.046875 0.78125 -2.625 1.1875q-1.5625 0.390625 -3.84375 0.390625l-9.09375 0zm3.15625 -13.828125l5.15625 0q2.109375 0 3.015625 -0.28125q1.203125 -0.359375 1.8125 -1.1875q0.609375 -0.828125 0.609375 -2.078125q0 -1.1875 -0.578125 -2.09375q-0.5625 -0.90625 -1.625 -1.234375q-1.046875 -0.34375 -3.625 -0.34375l-4.765625 0l0 7.21875zm0 11.015625l5.9375 0q1.53125 0 2.15625 -0.109375q1.09375 -0.203125 1.8125 -0.65625q0.734375 -0.453125 1.203125 -1.328125q0.484375 -0.875 0.484375 -2.015625q0 -1.328125 -0.6875 -2.3125q-0.6875 -0.984375 -1.90625 -1.375q-1.203125 -0.40625 -3.484375 -0.40625l-5.515625 0l0 8.203125zm18.24524 -8.8125q0 -5.9375 3.1875 -9.296875q3.1874695 -3.359375 8.2343445 -3.359375q3.3125 0 5.953125 1.578125q2.65625 1.578125 4.046875 4.40625q1.390625 2.828125 1.390625 6.40625q0 3.625 -1.46875 6.5q-1.453125 2.859375 -4.140625 4.328125q-2.6875 1.46875 -5.796875 1.46875q-3.359375 0 -6.015625 -1.625q-2.6562195 -1.625 -4.0312195 -4.4375q-1.359375 -2.828125 -1.359375 -5.96875zm3.25 0.046875q0 4.3125 2.3124695 6.796875q2.328125 2.484375 5.828125 2.484375q3.5625 0 5.859375 -2.5q2.3125 -2.515625 2.3125 -7.109375q0 -2.921875 -0.984375 -5.09375q-0.984375 -2.171875 -2.890625 -3.359375q-1.890625 -1.203125 -4.25 -1.203125q-3.34375 0 -5.765625 2.3125q-2.4218445 2.296875 -2.4218445 7.671875zm23.6893 11.578125l0 -23.859375l10.578125 0q3.1875 0 4.84375 0.640625q1.65625 0.640625 2.640625 2.28125q1.0 1.625 1.0 3.59375q0 2.53125 -1.640625 4.28125q-1.640625 1.734375 -5.078125 2.203125q1.25 0.609375 1.90625 1.1875q1.390625 1.28125 2.625 3.171875l4.140625 6.5l-3.96875 0l-3.15625 -4.96875q-1.375 -2.140625 -2.28125 -3.28125q-0.890625 -1.140625 -1.609375 -1.59375q-0.703125 -0.453125 -1.421875 -0.640625q-0.546875 -0.109375 -1.765625 -0.109375l-3.65625 0l0 10.59375l-3.15625 0zm3.15625 -13.328125l6.78125 0q2.171875 0 3.390625 -0.4375q1.21875 -0.453125 1.84375 -1.4375q0.640625 -0.984375 0.640625 -2.140625q0 -1.703125 -1.234375 -2.78125q-1.21875 -1.09375 -3.875 -1.09375l-7.546875 0l0 7.890625zm18.240417 13.328125l9.15625 -23.859375l3.40625 0l9.765625 23.859375l-3.59375 0l-2.78125 -7.21875l-9.984375 0l-2.625 7.21875l-3.34375 0zm6.875 -9.796875l8.09375 0l-2.484375 -6.609375q-1.140625 -3.015625 -1.703125 -4.9375q-0.453125 2.28125 -1.28125 4.546875l-2.625 7.0zm21.568115 9.796875l0 -21.046875l-7.859375 0l0 -2.8125l18.90625 0l0 2.8125l-7.890625 0l0 21.046875l-3.15625 0zm14.826904 0l0 -23.859375l3.15625 0l0 23.859375l-3.15625 0zm8.681519 0l0 -23.859375l3.25 0l12.53125 18.734375l0 -18.734375l3.015625 0l0 23.859375l-3.234375 0l-12.53125 -18.75l0 18.75l-3.03125 0zm35.271606 -9.359375l0 -2.796875l10.109375 -0.015625l0 8.859375q-2.328125 1.84375 -4.8125 2.78125q-2.46875 0.9375 -5.0625 0.9375q-3.515625 0 -6.390625 -1.5q-2.875 -1.515625 -4.34375 -4.359375q-1.453125 -2.84375 -1.453125 -6.359375q0 -3.484375 1.453125 -6.5q1.453125 -3.015625 4.1875 -4.484375q2.734375 -1.46875 6.296875 -1.46875q2.59375 0 4.671875 0.84375q2.09375 0.828125 3.28125 2.328125q1.1875 1.5 1.8125 3.90625l-2.84375 0.78125q-0.546875 -1.8125 -1.34375 -2.859375q-0.796875 -1.046875 -2.28125 -1.671875q-1.46875 -0.625 -3.28125 -0.625q-2.15625 0 -3.75 0.65625q-1.578125 0.65625 -2.546875 1.734375q-0.953125 1.078125 -1.5 2.359375q-0.90625 2.21875 -0.90625 4.796875q0 3.203125 1.09375 5.34375q1.09375 2.140625 3.1875 3.1875q2.109375 1.046875 4.46875 1.046875q2.046875 0 4.0 -0.78125q1.953125 -0.796875 2.96875 -1.703125l0 -4.4375l-7.015625 0z" fill-rule="nonzero"/><path fill="#ffffff" d="m-71.92126 4.6049867l6.456688 0l0 110.04724l-6.456688 0z" fill-rule="evenodd"/><path fill="#ffffff" d="m-53.444874 4.366044l6.4566956 0l0 110.04724l-6.4566956 0z" fill-rule="evenodd"/><path fill="#ffffff" d="m-34.968483 4.366044l6.4566917 0l0 110.04724l-6.4566917 0z" fill-rule="evenodd"/><path fill="#ffffff" d="m-11.687664 75.78609l0 6.173233l-76.81889 0l0 -6.173233z" fill-rule="evenodd"/><path fill="#ffffff" d="m-23.468945 69.50304c3.9720821 -3.832779 9.94636 -4.846237 14.996933 -2.5440292c5.050573 2.3022003 8.120062 7.43808 7.7051845 12.892342c-0.41487736 5.454262 -4.227263 10.085007 -9.570041 11.624329c-5.342778 1.5393219 -11.097395 -0.33504486 -14.445526 -4.7051315l4.974205 -3.6775055l0 0c1.8111534 2.2913513 4.8975325 3.262558 7.7560825 2.4406433c2.858551 -0.82190704 4.895023 -3.2660675 5.1176624 -6.142189c0.22263956 -2.876114 -1.4148378 -5.586281 -4.1149855 -6.8106613c-2.7001476 -1.2243805 -5.9016466 -0.7084427 -8.045379 1.2965546z" fill-rule="evenodd"/><path fill="#ffffff" d="m-88.51706 102.06431l0 -6.173233l76.37795 0l0 6.173233z" fill-rule="evenodd"/><path fill="#ffffff" d="m-76.73578 108.34736c-3.972084 3.8327713 -9.946358 4.8462296 -14.996933 2.5440292c-5.0505753 -2.302208 -8.120064 -7.4380875 -7.705185 -12.892342c0.41487885 -5.454262 4.2272644 -10.085007 9.570038 -11.624329c5.342781 -1.5393219 11.097397 0.33504486 14.445526 4.7051315l-4.974205 3.6774979l0 0c-1.8111496 -2.2913437 -4.8975296 -3.2625504 -7.7560806 -2.4406357c-2.858551 0.82190704 -4.8950195 3.2660675 -5.1176605 6.142189c-0.22264099 2.876114 1.4148331 5.586281 4.1149826 6.8106613c2.7001495 1.2243805 5.9016495 0.7084427 8.04538 -1.2965546z" fill-rule="evenodd"/><path fill="#000000" fill-opacity="0.0" d="m60.29134 79.979004c12.499981 0 25.623142 -14.622894 24.999966 -29.248032c-0.62316895 -14.625141 -14.992668 -29.252533 -29.362171 -29.248034c-14.369503 0.0044994354 -28.739002 14.64089 -29.362175 29.279528c-0.62317276 14.638641 12.499985 29.279526 24.99997 29.279526" fill-rule="evenodd"/><path stroke="#ffffff" stroke-width="4.0" stroke-linejoin="round" stroke-linecap="butt" d="m60.29134 79.979004c12.499981 0 25.623142 -14.622894 24.999966 -29.248032c-0.62316895 -14.625141 -14.992668 -29.252533 -29.362171 -29.248034c-14.369503 0.0044994354 -28.739002 14.64089 -29.362175 29.279528c-0.62317276 14.638641 12.499985 29.279526 24.99997 29.279526" fill-rule="evenodd"/><path fill="#000000" fill-opacity="0.0" d="m51.56693 46.48294l8.724411 0l0 66.99213l-8.724411 0z" fill-rule="evenodd"/><path fill="#ffffff" d="m53.293964 6.178478l0 0c0 -1.1741486 0.95183563 -2.1259842 2.1259842 -2.1259842l0 0l0 0c0.5638466 0 1.104599 0.22398663 1.5032959 0.6226864c0.3987007 0.39869928 0.6226883 0.9394517 0.6226883 1.5032978l0 7.811023c0 1.1741486 -0.95183563 2.1259851 -2.1259842 2.1259851l0 0l0 0c-1.1741486 0 -2.1259842 -0.9518366 -2.1259842 -2.1259851z" fill-rule="evenodd"/><path fill="#ffffff" d="m99.333336 47.429134l0 0c1.1741486 0 2.1259842 0.95183563 2.1259842 2.1259842l0 0l0 0c0 0.5638466 -0.2239914 1.104599 -0.6226883 1.5032959c-0.3986969 0.3987007 -0.9394531 0.6226883 -1.5032959 0.6226883l-7.8110275 0c-1.1741486 0 -2.1259842 -0.95183563 -2.1259842 -2.1259842l0 0l0 0c0 -1.1741486 0.95183563 -2.1259842 2.1259842 -2.1259842z" fill-rule="evenodd"/><path fill="#ffffff" d="m19.984251 47.427822l0 0c1.1741505 0 2.125986 0.95183563 2.125986 2.1259842l0 0l0 0c0 0.5638466 -0.22398758 1.104599 -0.6226864 1.5032959c-0.3987007 0.3987007 -0.9394531 0.6226883 -1.5032997 0.6226883l-7.8110228 0c-1.1741486 0 -2.1259842 -0.95183563 -2.1259842 -2.1259842l0 0l0 0c0 -1.1741486 0.95183563 -2.1259842 2.1259842 -2.1259842z" fill-rule="evenodd"/><path fill="#ffffff" d="m92.14927 25.737995l0 0c1.0239944 -0.57811165 2.3194504 -0.21479034 2.8934784 0.81150246l0 0l0 0c0.27565765 0.49284363 0.3446808 1.0757847 0.1918869 1.6205845c-0.15279388 0.5447998 -0.51488495 1.0068283 -1.00663 1.2844486l-6.7799606 3.8277302c-1.0240021 0.57810974 -2.319458 0.21479034 -2.893486 -0.81150436l0 0l0 0c-0.574028 -1.0262928 -0.2092514 -2.3269196 0.81474304 -2.905033z" fill-rule="evenodd"/><path fill="#ffffff" d="m18.49266 25.979465l0 0c-1.0239983 -0.57811356 -2.3194542 -0.21479034 -2.8934813 0.81150246l0 0l0 0c-0.2756586 0.49284172 -0.3446827 1.0757847 -0.19188881 1.6205845c0.15279293 0.5447979 0.51488876 1.0068283 1.0066309 1.2844486l6.7799644 3.8277264c1.0239983 0.57811356 2.3194542 0.21479416 2.8934822 -0.81150055l0 0l0 0c0.574028 -1.0262928 0.20925522 -2.3269215 -0.81474113 -2.905033z" fill-rule="evenodd"/><path fill="#ffffff" d="m74.76938 19.55518l0 0c-0.62262726 0.99375725 -1.9311447 1.2917099 -2.9226456 0.6654968l0 0l0 0c-0.47613525 -0.3007183 -0.81399536 -0.77869225 -0.93925476 -1.3287773c-0.12525177 -0.55008316 -0.027648926 -1.1272163 0.27135468 -1.604435l4.138954 -6.606015c0.62262726 -0.9937563 1.9311447 -1.291709 2.9226456 -0.6654968l0 0l0 0c0.99150085 0.6262131 1.290535 1.9394569 0.6679001 2.9332132z" fill-rule="evenodd"/><path fill="#ffffff" d="m36.06844 19.55518l0 0c0.6226311 0.99375725 1.9311447 1.2917099 2.9226494 0.6654968l0 0l0 0c0.47613525 -0.3007183 0.81399536 -0.77869225 0.93925095 -1.3287773c0.12525558 -0.55008316 0.027648926 -1.1272163 -0.27135086 -1.604435l-4.1389503 -6.606015c-0.6226311 -0.9937563 -1.9311485 -1.291709 -2.9226494 -0.6654968l0 0l0 0c-0.99150467 0.6262131 -1.290535 1.9394569 -0.6679039 2.9332132z" fill-rule="evenodd"/><path fill="#000000" fill-opacity="0.0" d="m52.690388 16.993546l19.748035 13.03937l-6.299217 9.543306l-19.748032 -13.03937z" fill-rule="evenodd"/><path fill="#ffffff" d="m73.77742 41.910057l0 0c0.73511505 0.916584 2.0713577 1.060318 2.984581 0.3210373l0 0l0 0c0.43855286 -0.3550148 0.7189026 -0.87033844 0.7793808 -1.4326134c0.06048584 -0.5622711 -0.10385895 -1.1254311 -0.45687103 -1.5655899l-4.865486 -6.0665855c-0.7351074 -0.916584 -2.07135 -1.060318 -2.984581 -0.3210373l0 0l0 0c-0.91322327 0.7392769 -1.0576172 2.0816193 -0.32250214 2.9982033z" fill-rule="evenodd"/><path fill="#ffffff" d="m53.725616 35.129185l0 0c0.53580856 -1.0454521 1.816246 -1.4558182 2.859932 -0.9165802l0 0l0 0c0.5011978 0.25894928 0.87965393 0.7067337 1.0521088 1.2448387c0.17245865 0.538105 0.12479019 1.1224518 -0.13251495 1.6244965l-11.602966 22.639278c-0.53580856 1.0454521 -1.816246 1.455822 -2.859932 0.916584l0 0l0 0c-1.0436897 -0.5392418 -1.4554062 -1.8238869 -0.9195976 -2.869339z" fill-rule="evenodd"/><path fill="#ffffff" d="m57.568554 35.12914l0 0c-0.5358467 -1.0454292 -1.8163147 -1.45578 -2.8600044 -0.91654205l0 0l0 0c-0.5011978 0.2589531 -0.8796425 0.7067299 -1.0520859 1.2448273c-0.1724472 0.5380974 -0.124759674 1.1224365 0.13256454 1.6244736l10.909908 21.285023c0.5358505 1.0454292 1.8163223 1.45578 2.8600082 0.91654205l0 0l0 0c1.0436859 -0.539238 1.455368 -1.8238678 0.91952515 -2.8693008z" fill-rule="evenodd"/><path fill="#ffffff" d="m41.70341 59.165356l0 0c0 -1.1741486 0.95183563 -2.1259842 2.1259842 -2.1259842l0 0l0 0c0.5638466 0 1.104599 0.22398758 1.5032997 0.6226845c0.3986969 0.3987007 0.6226845 0.9394531 0.6226845 1.5032997l0 53.6378c0 1.1741486 -0.95183563 2.1259842 -2.1259842 2.1259842l0 0l0 0c-1.1741486 0 -2.1259842 -0.95183563 -2.1259842 -2.1259842z" fill-rule="evenodd"/><path fill="#ffffff" d="m64.727036 58.144356l0 0c0 -1.1741486 0.95183563 -2.1259842 2.1259842 -2.1259842l0 0l0 0c0.5638428 0 1.104599 0.22398758 1.5032959 0.6226883c0.3986969 0.3986969 0.6226883 0.9394493 0.6226883 1.5032959l0 54.708664c0 1.1741486 -0.95183563 2.1259842 -2.1259842 2.1259842l0 0l0 0c-1.1741486 0 -2.1259842 -0.95183563 -2.1259842 -2.1259842z" fill-rule="evenodd"/><path fill="#ffffff" d="m64.91863 99.09974l0 0c1.1741486 0 2.1259842 0.95183563 2.1259842 2.1259842l0 0l0 0c0 0.5638428 -0.22398376 1.104599 -0.62268066 1.5032959c-0.39870453 0.3986969 -0.9394531 0.6226883 -1.5033035 0.6226883l-19.02362 0c-1.1741486 0 -2.1259842 -0.95183563 -2.1259842 -2.1259842l0 0l0 0c0 -1.1741486 0.95183563 -2.1259842 2.1259842 -2.1259842z" fill-rule="evenodd"/><path fill="#ffffff" d="m66.49627 110.71391l0 0c1.1741486 0 2.1259842 0.95183563 2.1259842 2.1259842l0 0l0 0c0 0.5638428 -0.2239914 1.104599 -0.6226883 1.5032959c-0.3986969 0.3986969 -0.9394531 0.6226883 -1.5032959 0.6226883l-22.645672 0c-1.1741486 0 -2.1259842 -0.95183563 -2.1259842 -2.1259842l0 0l0 0c0 -1.1741486 0.95183563 -2.1259842 2.1259842 -2.1259842z" fill-rule="evenodd"/><path fill="#ffffff" d="m47.466553 55.01944l0 0c-1.0242844 -0.5776062 -2.319973 -0.213871 -2.894001 0.8124237l0 0l0 0c-0.27565765 0.4928398 -0.34462738 1.0756874 -0.19173813 1.6203117c0.15289307 0.54462814 0.51512146 1.006424 1.007 1.2837982l8.857666 4.9949265c1.0242844 0.5776024 2.319973 0.21386719 2.894001 -0.8124237l0 0l0 0c0.574028 -1.0262947 0.20902252 -2.3265076 -0.81526184 -2.9041138z" fill-rule="evenodd"/><path fill="#ffffff" d="m63.823162 54.679115l0 0c1.023983 -0.57813644 2.3194313 -0.2148323 2.8934593 0.8114624l0 0l0 0c0.27565765 0.49284363 0.3446808 1.0757904 0.19189453 1.620594c-0.15278625 0.54480743 -0.5148773 1.0068474 -1.0066147 1.284481l-9.457176 5.3394585c-1.0239868 0.57813644 -2.3194313 0.21482849 -2.8934593 -0.8114624l0 0l0 0c-0.574028 -1.0262947 -0.20926666 -2.3269386 0.81472015 -2.905075z" fill-rule="evenodd"/><path fill="#ffffff" d="m52.818897 41.435696l0 0c0 -1.5655327 1.2691154 -2.8346443 2.8346443 -2.8346443l0 0l0 0c0.7517967 0 1.4728012 0.29864883 2.0043983 0.830246c0.53160095 0.53160095 0.8302498 1.2526016 0.8302498 2.0043983l0 0.81889725c0 1.5655327 -1.2691154 2.8346443 -2.8346481 2.8346443l0 0l0 0c-1.5655289 0 -2.8346443 -1.2691116 -2.8346443 -2.8346443z" fill-rule="evenodd"/></g></svg>